<?xml version="1.0" encoding="UTF-8" standalone="no"?>
<!-- Created with Inkscape (http://www.inkscape.org/) -->

<svg
   xmlns:dc="http://purl.org/dc/elements/1.1/"
   xmlns:cc="http://creativecommons.org/ns#"
   xmlns:rdf="http://www.w3.org/1999/02/22-rdf-syntax-ns#"
   xmlns:svg="http://www.w3.org/2000/svg"
   xmlns="http://www.w3.org/2000/svg"
   xmlns:sodipodi="http://sodipodi.sourceforge.net/DTD/sodipodi-0.dtd"
   xmlns:inkscape="http://www.inkscape.org/namespaces/inkscape"
   width="24"
   height="24"
   id="svg2"
   version="1.1"
   inkscape:version="0.48.4 r9939"
   sodipodi:docname="multiplicity.svg">
  <defs
     id="defs4" />
  <sodipodi:namedview
     id="base"
     pagecolor="#ffffff"
     bordercolor="#666666"
     borderopacity="1.0"
     inkscape:pageopacity="0.0"
     inkscape:pageshadow="2"
     inkscape:zoom="32"
     inkscape:cx="14.635417"
     inkscape:cy="10.5378"
     inkscape:document-units="px"
     inkscape:current-layer="layer1"
     showgrid="false"
     width="24px"
     inkscape:window-width="1440"
     inkscape:window-height="849"
     inkscape:window-x="0"
     inkscape:window-y="25"
     inkscape:window-maximized="1" />
  <metadata
     id="metadata7">
    <rdf:RDF>
      <cc:Work
         rdf:about="">
        <dc:format>image/svg+xml</dc:format>
        <dc:type
           rdf:resource="http://purl.org/dc/dcmitype/StillImage" />
        <dc:title></dc:title>
      </cc:Work>
    </rdf:RDF>
  </metadata>
  <g
     inkscape:label="Camada 1"
     inkscape:groupmode="layer"
     id="layer1"
     transform="translate(0,-1028.3621)">
    <path
       sodipodi:type="arc"
       style="fill:none;stroke:#000000"
       id="path3061"
       sodipodi:cx="861.42859"
       sodipodi:cy="-76"
       sodipodi:rx="430"
       sodipodi:ry="442.85715"
       d="m 1291.4286,-76 a 430,442.85715 0 1 1 -860.00001,0 430,442.85715 0 1 1 860.00001,0 z"
       transform="matrix(0.0161519,0,0,0.01568182,-6.9141165,1042.0545)" />
    <path
       sodipodi:type="arc"
       style="fill:none;stroke:#000000"
       id="path3061-3"
       sodipodi:cx="861.42859"
       sodipodi:cy="-76"
       sodipodi:rx="430"
       sodipodi:ry="442.85715"
       d="m 1291.4286,-76 a 430,442.85715 0 1 1 -860.00001,0 430,442.85715 0 1 1 860.00001,0 z"
       transform="matrix(0.01615072,0,0,0.01568297,3.0946177,1042.0462)" />
    <path
       sodipodi:type="arc"
       style="fill:none;stroke:#000000"
       id="path3061-3-9"
       sodipodi:cx="861.42859"
       sodipodi:cy="-76"
       sodipodi:rx="430"
       sodipodi:ry="442.85715"
       d="m 1291.4286,-76 a 430,442.85715 0 1 1 -860.00001,0 430,442.85715 0 1 1 860.00001,0 z"
       transform="matrix(0.0161519,0,0,0.01568182,-1.9058914,1036.5466)" />
    <path
       sodipodi:type="arc"
       style="fill:none;stroke:#000000"
       id="path3061-3-9-4"
       sodipodi:cx="861.42859"
       sodipodi:cy="-76"
       sodipodi:rx="430"
       sodipodi:ry="442.85715"
       d="m 1291.4286,-76 a 430,442.85715 0 1 1 -860.00001,0 430,442.85715 0 1 1 860.00001,0 z"
       transform="matrix(0.0161519,0,0,0.01568182,-1.9058914,1046.5545)" />
    <path
       sodipodi:type="arc"
       style="fill:none;stroke:#000000"
       id="path3061-3-9-4-9"
       sodipodi:cx="861.42859"
       sodipodi:cy="-76"
       sodipodi:rx="430"
       sodipodi:ry="442.85715"
       d="m 1291.4286,-76 a 430,442.85715 0 1 1 -860.00001,0 430,442.85715 0 1 1 860.00001,0 z"
       transform="matrix(0.0277555,0,0,0.02689193,-11.909383,1042.4058)" />
    <path
       style="fill:#37c837;fill-opacity:1;stroke:#000000;stroke-width:0.03125"
       d="M 10.98125,23.835278 C 10.835156,23.821827 10.519122,23.760109 10.278952,23.698126 9.0572841,23.382839 8.0291377,22.79232 7.1213837,21.884566 6.4394417,21.202624 5.970601,20.505723 5.6085891,19.635897 5.5380435,19.466393 5.4850279,19.323005 5.4907765,19.317256 c 0.00575,-0.0057 0.1149412,0.0093 0.2426503,0.03346 0.7089171,0.134058 1.708005,0.14205 2.4196982,0.01936 1.3809731,-0.238074 2.524291,-0.804612 3.621221,-1.794393 l 0.237884,-0.214647 0.208185,0.194747 c 0.86451,0.808707 1.907493,1.38582 3.019648,1.670861 0.683952,0.175295 1.04432,0.218952 1.788062,0.216615 0.615457,-0.0019 0.768949,-0.01565 1.396894,-0.124868 l 0.115643,-0.02011 -0.06184,0.167901 c -0.114854,0.311836 -0.493281,1.040903 -0.703531,1.355401 -0.454233,0.679457 -0.975453,1.23076 -1.628331,1.722313 -0.91081,0.685749 -2.163482,1.198353 -3.159223,1.292778 -0.38077,0.03611 -1.608462,0.03526 -2.006487,-0.0014 l 0,-10e-7 z"
       id="path3154"
       inkscape:connector-curvature="0"
       transform="translate(0,1028.3621)" />
    <path
       style="fill:#7fff2a;fill-opacity:1;stroke:#000000;stroke-width:0.03125000000000000"
       d="M 6.4489914,19.401307 C 6.1310057,19.374711 5.7580175,19.319621 5.5682362,19.271223 5.4582693,19.243179 5.4487807,19.230445 5.3896871,19.03159 5.2914831,18.701126 5.2075942,18.319635 5.1510947,17.946575 5.080316,17.47923 5.080407,16.506648 5.1512731,16.040325 5.3665422,14.62378 5.9335749,13.420834 6.8916301,12.348201 l 0.2847582,-0.318814 0.3164934,0.266474 c 0.7080492,0.596149 1.6054355,1.098062 2.368728,1.324842 0.1259584,0.03742 0.2443523,0.08387 0.2630983,0.103207 0.01874,0.01934 0.05863,0.154696 0.08864,0.30079 0.203375,0.990198 0.76964,2.126136 1.482573,2.974066 0.139744,0.166205 0.25408,0.308936 0.25408,0.31718 0,0.0082 -0.08789,0.09959 -0.195312,0.202984 -0.841032,0.809519 -1.9637399,1.422836 -3.1196989,1.704241 -0.6657256,0.162063 -1.5331023,0.232745 -2.1859977,0.178136 l 0,0 z"
       id="path3156"
       inkscape:connector-curvature="0"
       transform="translate(0,1028.3621)" />
    <path
       style="fill:#d4ff2a;fill-opacity:1;stroke:#000000;stroke-width:0.03125000000000000"
       d="M 5.0130966,19.130389 C 4.2071259,18.882835 3.5294509,18.539823 2.855709,18.038408 2.4993743,17.773215 1.9669916,17.269789 1.6837235,16.930169 1.217265,16.370914 0.7731547,15.604051 0.51687536,14.915325 0.35440488,14.478701 0.30643772,14.286882 0.2305345,13.770262 0.07407175,12.705329 0.068763,11.829579 0.21455407,11.134075 0.66053933,9.0064774 2.017303,7.2452998 3.934375,6.305478 4.3387287,6.1072483 4.8402162,5.9058131 5.0553375,5.855215 5.1370785,5.835989 5.1435235,5.840499 5.1278755,5.905969 5.0291315,6.3190994 5.026483,7.4344123 5.1227755,8.0553537 5.3382024,9.444595 5.976773,10.744656 6.9602515,11.796257 l 0.1821225,0.194738 -0.2685681,0.301649 c -1.0587744,1.189189 -1.6465316,2.514031 -1.8012591,4.060153 -0.085459,0.853949 0.041628,2.035853 0.2965425,2.75784 0.025791,0.07305 0.036969,0.132169 0.024841,0.131382 -0.012128,-7.88e-4 -0.1835015,-0.05102 -0.3808296,-0.11163 l 0,0 z"
       id="path3158"
       inkscape:connector-curvature="0"
       transform="translate(0,1028.3621)" />
    <path
       style="fill:#ff7f2a;fill-opacity:1;stroke:#000000;stroke-width:0.03125000000000000"
       d="M 6.9088949,11.667322 C 5.9298933,10.567732 5.3680715,9.378353 5.151341,7.9465746 5.0886347,7.53232 5.0850121,6.4526762 5.1450539,6.0727858 L 5.184375,5.8239971 5.3182561,5.7853978 C 5.8770979,5.6242783 7.0241319,5.5432287 7.7050389,5.6167473 9.0899903,5.7662828 10.398057,6.3214211 11.45,7.2060937 c 0.163281,0.1373178 0.34479,0.2997721 0.403353,0.3610096 l 0.106479,0.1113409 -0.169514,0.1965652 C 11.244991,8.507361 10.850203,9.1413821 10.562126,9.8474599 10.404302,10.234287 10.398789,10.24345 10.323843,10.24345 c -0.03298,0 -0.258295,0.06503 -0.5006946,0.144508 -0.520395,0.17063 -1.2301443,0.515292 -1.6700234,0.81098 -0.2743815,0.184441 -0.4122544,0.291287 -0.8754796,0.678464 l -0.1041812,0.08708 -0.2645693,-0.297158 0,0 z"
       id="path3160"
       inkscape:connector-curvature="0"
       transform="translate(0,1028.3621)" />
    <path
       style="fill:#ff0000;fill-opacity:1;stroke:#000000;stroke-width:0.03125"
       d="M 11.73125,7.3924421 C 10.896336,6.6077074 9.8296141,6.0299617 8.6862091,5.7432217 7.6581186,5.4853999 6.4635647,5.4733539 5.4421875,5.7105089 5.2756611,5.7491749 5.2000126,5.7557824 5.2000405,5.7316586 5.2000627,5.7123624 5.2343428,5.5559495 5.2762184,5.3840745 5.7618852,3.3906949 7.0772463,1.7339036 8.9073391,0.81041844 9.4217606,0.55083569 9.9462009,0.36199086 10.478117,0.24479984 c 0.789393,-0.17391809 2.359512,-0.16548219 3.128133,0.0168068 1.715153,0.4067722 3.235068,1.47889136 4.209736,2.96946736 0.454987,0.6958206 0.841881,1.650848 0.987861,2.4384877 l 0.01816,0.097987 -0.225066,-0.057031 c -0.3489,-0.08841 -0.839291,-0.1534619 -1.318816,-0.174945 -1.84973,-0.082869 -3.706968,0.6138444 -5.0625,1.8991175 l -0.21875,0.2074122 -0.265625,-0.2496606 0,0 z"
       id="path3162"
       inkscape:connector-curvature="0"
       transform="translate(0,1028.3621)" />
    <path
       style="fill:#cc00ff;fill-opacity:1;stroke:#000000;stroke-width:0.03125"
       d="M 16.758834,11.910314 C 16.668104,11.79974 16.164263,11.400136 15.868292,11.204005 15.270483,10.807854 14.585211,10.490131 13.934519,10.30742 13.748333,10.25514 13.59257,10.20881 13.58838,10.20447 13.58418,10.20017 13.52777,10.064001 13.463006,9.9019667 13.170647,9.1705177 12.768929,8.5210033 12.217034,7.8874271 l -0.187629,-0.2153975 0.21811,-0.2036179 c 1.107489,-1.0339038 2.423604,-1.6504622 3.951883,-1.8513329 0.348446,-0.045798 1.218984,-0.045768 1.600652,5.6e-5 0.341245,0.040971 0.983076,0.1677739 1.016035,0.200733 0.04494,0.044941 0.100363,0.6790095 0.101491,1.1611444 0.0012,0.5078294 -0.0484,1.0274311 -0.138345,1.4496406 -0.258615,1.2139343 -0.883769,2.4089452 -1.717744,3.2835472 -0.242776,0.254603 -0.251574,0.260362 -0.302653,0.198114 z"
       id="path3170"
       inkscape:connector-curvature="0"
       transform="translate(0,1028.3621)" />
    <path
       style="fill:#0066ff;fill-opacity:1;stroke:#000000;stroke-width:0.03125000000000000"
       d="m 18.666028,19.048137 c 0.272831,-0.793481 0.379258,-2.124631 0.241728,-3.023437 -0.06998,-0.457328 -0.203108,-0.991537 -0.346558,-1.390625 -0.318643,-0.886487 -0.935797,-1.87194 -1.544197,-2.465727 l -0.156998,-0.153227 0.26864,-0.299898 c 0.987769,-1.102701 1.55913,-2.3080578 1.779,-3.7530234 0.06644,-0.4366457 0.07526,-1.4151924 0.01645,-1.823882 -0.02193,-0.1523539 -0.03257,-0.284304 -0.02365,-0.2932226 0.03316,-0.033164 0.704647,0.2217032 1.127687,0.4280245 2.111491,1.0297968 3.535179,3.0096491 3.840423,5.3406865 0.07356,0.561782 -0.0023,1.721064 -0.167965,2.567144 -0.16576,0.846489 -0.714471,1.944961 -1.355205,2.713001 -0.268314,0.321625 -0.85431,0.884784 -1.156321,1.111256 -0.501756,0.376259 -0.978376,0.647721 -1.570178,0.894309 -0.296648,0.123604 -0.882078,0.312684 -0.968135,0.312684 -0.03206,0 -0.02869,-0.03616 0.01528,-0.164063 z"
       id="path3172"
       inkscape:connector-curvature="0"
       transform="translate(0,1028.3621)" />
    <path
       style="fill:#2ad4ff;fill-opacity:1;stroke:#000000;stroke-width:0.03125000000000000"
       d="M 16.16875,19.365713 C 14.848093,19.196267 13.589272,18.6458 12.553957,17.785007 12.385062,17.644583 12.19953,17.480501 12.141665,17.420381 l -0.105211,-0.109309 0.138782,-0.150999 c 0.8048,-0.875645 1.419661,-2.092755 1.649587,-3.265337 l 0.03468,-0.176839 0.394327,-0.134297 c 0.850392,-0.289619 1.754488,-0.813634 2.356807,-1.366009 0.09694,-0.0889 0.190402,-0.161641 0.207691,-0.161641 0.05023,0 0.484689,0.476581 0.720657,0.790529 0.751139,0.999364 1.210447,2.165316 1.34968,3.426159 0.05296,0.479583 0.02164,1.466728 -0.06084,1.917693 -0.03395,0.185628 -0.106132,0.497813 -0.1604,0.693745 l -0.09867,0.35624 -0.160937,0.03294 c -0.584164,0.119579 -1.676199,0.16467 -2.239063,0.09245 z"
       id="path3174"
       inkscape:connector-curvature="0"
       transform="translate(0,1028.3621)" />
    <path
       style="fill:#ffffff;fill-opacity:1;stroke:#000000;stroke-width:0.03125000000000000"
       d="m 11.16875,13.865713 c -0.278918,-0.03579 -0.879455,-0.155476 -0.941324,-0.18761 -0.128027,-0.0665 -0.177704,-1.462923 -0.07605,-2.137778 0.05877,-0.390147 0.144936,-0.778393 0.240439,-1.08334 l 0.06525,-0.20834 0.269906,-0.04917 c 0.518227,-0.09442 0.91247,-0.120787 1.519906,-0.101666 0.567723,0.01787 1.239087,0.103987 1.296948,0.166361 0.03829,0.04128 0.177357,0.556928 0.247245,0.916785 0.124935,0.643292 0.16021,1.381378 0.09559,2 -0.05569,0.533079 -0.02778,0.486944 -0.338219,0.559009 -0.499997,0.116067 -0.943968,0.159949 -1.576072,0.155778 -0.330268,-0.0022 -0.691894,-0.01569 -0.803613,-0.03002 z"
       id="path3176"
       inkscape:connector-curvature="0"
       transform="translate(0,1028.3621)" />
    <path
       style="fill:#eeffaa;fill-opacity:1;stroke:#000000;stroke-width:0.03125000000000000"
       d="M 9.715625,13.523873 C 8.8965065,13.231733 8.1599811,12.802059 7.4690919,12.213292 L 7.2320165,12.011259 7.3331957,11.905905 c 0.3231145,-0.336445 1.0298846,-0.82023 1.6324293,-1.117398 0.3800587,-0.187441 1.37095,-0.543899 1.408251,-0.506598 0.0092,0.0092 -0.01878,0.141487 -0.06228,0.293865 -0.270084,0.946036 -0.3419723,2.078518 -0.188681,2.972363 0.01229,0.07167 0.0055,0.101088 -0.02306,0.09995 -0.02226,-8.88e-4 -0.1951665,-0.05678 -0.384229,-0.124213 z"
       id="path3178"
       inkscape:connector-curvature="0"
       transform="translate(0,1028.3621)" />
    <path
       style="fill:#d7f4d7;fill-opacity:1;stroke:#000000;stroke-width:0.03125000000000000"
       d="m 11.79375,17.039206 c -0.60174,-0.70927 -1.029527,-1.443128 -1.310938,-2.248881 -0.116518,-0.333622 -0.282663,-0.941608 -0.282772,-1.034765 -2.7e-5,-0.02353 0.07825,-0.01605 0.242148,0.02313 0.920015,0.219925 1.97712,0.234489 2.94168,0.04053 0.212847,-0.0428 0.394058,-0.07076 0.402692,-0.06212 0.02535,0.02535 -0.0532,0.38134 -0.167182,0.757728 -0.280113,0.924977 -0.850401,1.938796 -1.452501,2.582155 l -0.170002,0.181652 -0.203125,-0.239422 z"
       id="path3180"
       inkscape:connector-curvature="0"
       transform="translate(0,1028.3621)" />
    <path
       style="fill:#ffd5d5;fill-opacity:1;stroke:#000000;stroke-width:0.03125000000000000"
       d="m 10.498899,10.13882 c 0.0528,-0.1782851 0.286674,-0.6934726 0.441931,-0.9734954 0.227217,-0.4098097 0.480116,-0.7768558 0.796097,-1.155419 l 0.256818,-0.3076829 0.15151,0.1690509 c 0.385144,0.4297314 0.775188,1.002905 1.036383,1.5229765 0.166405,0.3313326 0.340262,0.7564669 0.318324,0.7784039 -0.0083,0.0083 -0.149814,-0.0079 -0.314542,-0.03602 -0.83653,-0.1425917 -1.834438,-0.126498 -2.582831,0.04166 -0.11729,0.02635 -0.122586,0.02434 -0.10369,-0.03947 z"
       id="path3182"
       inkscape:connector-curvature="0"
       transform="translate(0,1028.3621)" />
    <path
       style="fill:#d5e5ff;fill-opacity:1;stroke:#000000;stroke-width:0.03125000000000000"
       d="m 13.888119,13.579982 c 3.4e-4,-0.039 0.01501,-0.169345 0.03259,-0.289657 0.04275,-0.29253 0.04197,-1.243557 -0.0013,-1.59375 -0.05683,-0.459795 -0.200128,-1.109917 -0.304728,-1.3825 -0.02227,-0.05802 0.07086,-0.04046 0.491577,0.0927 0.881036,0.278858 1.832637,0.820896 2.5,1.424017 l 0.171875,0.155329 -0.0625,0.06975 c -0.123172,0.137461 -0.540738,0.468124 -0.884679,0.700562 -0.498171,0.336668 -1.424829,0.772833 -1.857508,0.874303 -0.07452,0.01748 -0.08586,0.01073 -0.08532,-0.05076 l 0,0 z"
       id="path3184"
       inkscape:connector-curvature="0"
       transform="translate(0,1028.3621)" />
    <path
       style="fill:#000000;fill-opacity:1;stroke:#000000;stroke-width:0.03125"
       d="M 9.6635416,23.650395 C 7.9074157,23.297382 6.1610288,22.506863 4.7729166,21.436606 2.8319743,19.940107 1.4458047,17.984857 0.67030468,15.6497 0.48735641,15.098812 0.5061962,15.08083 0.75215376,15.571575 c 0.67584014,1.348464 1.64637454,2.3568 2.95507664,3.070174 0.3575459,0.194899 0.9975559,0.4519 1.3953419,0.560311 l 0.3238659,0.08826 0.067067,0.1875 c 0.1231115,0.344188 0.462654,1.002205 0.7019968,1.360437 0.8718532,1.304931 2.1257866,2.270627 3.59304,2.767119 0.34461,0.11661 0.30397,0.131245 -0.125,0.04501 z"
       id="path3186"
       inkscape:connector-curvature="0"
       transform="translate(0,1028.3621)" />
    <path
       style="fill:#000000;fill-opacity:1;stroke:#000000;stroke-width:0.03125"
       d="m 14.226042,23.605406 c 1.472676,-0.49821 2.727268,-1.46435 3.595908,-2.769149 0.242006,-0.363522 0.530115,-0.916394 0.669406,-1.284571 l 0.102106,-0.269888 0.206915,-0.05512 c 1.995416,-0.531584 3.711663,-1.985969 4.5529,-3.858226 0.155943,-0.347067 0.128968,-0.176187 -0.06166,0.390625 -1.37107,4.076646 -4.830707,7.099818 -9.049947,7.908209 -0.355069,0.06803 -0.358576,0.05414 -0.01563,-0.06188 z"
       id="path3188"
       inkscape:connector-curvature="0"
       transform="translate(0,1028.3621)" />
    <path
       style="fill:#000000;fill-opacity:1;stroke:#000000;stroke-width:0.03125"
       d="M 23.807441,10.977825 C 23.783461,10.857512 23.716318,10.608386 23.658235,10.424212 23.077775,8.5836383 21.795662,7.0870452 20.07712,6.2440255 19.832464,6.1240111 19.463542,5.9699983 19.257292,5.9017742 l -0.375,-0.1240431 -0.05703,-0.2437031 C 18.585854,4.5108845 18.166917,3.5978883 17.573481,2.8059984 17.313182,2.4586518 16.794655,1.912853 16.458954,1.6328546 15.879937,1.1499128 15.070812,0.68904694 14.34982,0.43152216 13.960131,0.29233284 13.982196,0.27733718 14.43778,0.37174326 c 1.539993,0.31911773 3.164856,1.02785094 4.445888,1.93920864 2.585699,1.8395289 4.350887,4.6447023 4.853966,7.7137481 0.12279,0.74908 0.177194,1.491893 0.06981,0.953125 z"
       id="path3190"
       inkscape:connector-curvature="0"
       transform="translate(0,1028.3621)" />
    <path
       style="fill:#000000;fill-opacity:1;stroke:#000000;stroke-width:0.03125"
       d="M 0.13426891,11.0872 C 0.18864714,10.24718 0.37865934,9.2657399 0.65367237,8.4044061 1.4668362,5.8575977 3.0989754,3.679867 5.3277735,2.1678461 6.5974901,1.3064679 7.9960135,0.70868776 9.4989485,0.38493292 10.01225,0.27436003 10.064035,0.28891005 9.6647635,0.43152216 7.8568904,1.07726 6.3540729,2.4904693 5.6057982,4.2484642 5.4532119,4.6069499 5.2810454,5.1398539 5.1893173,5.5375889 L 5.1322916,5.784853 4.8666666,5.8684061 C 3.8767419,6.1797892 2.9523384,6.735178 2.1759334,7.4850196 1.1422472,8.4833402 0.48580575,9.6645789 0.17571736,11.084324 l -0.0586435,0.268501 0.0171951,-0.265625 z"
       id="path3192"
       inkscape:connector-curvature="0"
       transform="translate(0,1028.3621)" />
  </g>
</svg>
